<mxfile host="app.diagrams.net" modified="2021-04-07T10:41:28.352Z" agent="5.0 (Windows NT 6.1; Win64; x64) AppleWebKit/537.36 (KHTML, like Gecko) Chrome/89.0.4389.114 Safari/537.36" etag="ONdJ5612otMZgbmMzIgB" version="14.5.4" type="github">
  <diagram id="3b7WO4rr_zLypw5os_rb" name="Page-1">
    <mxGraphModel dx="1422" dy="789" grid="1" gridSize="10" guides="1" tooltips="1" connect="1" arrows="1" fold="1" page="1" pageScale="1" pageWidth="850" pageHeight="1100" math="0" shadow="0">
      <root>
        <mxCell id="0" />
        <mxCell id="1" parent="0" />
        <mxCell id="-3tM-keVwTwwfNCp3LF9-14" value="" style="edgeStyle=orthogonalEdgeStyle;rounded=0;orthogonalLoop=1;jettySize=auto;html=1;" edge="1" parent="1" source="-3tM-keVwTwwfNCp3LF9-1" target="-3tM-keVwTwwfNCp3LF9-2">
          <mxGeometry relative="1" as="geometry" />
        </mxCell>
        <mxCell id="-3tM-keVwTwwfNCp3LF9-1" value="" style="shape=hexagon;perimeter=hexagonPerimeter2;whiteSpace=wrap;html=1;fixedSize=1;" vertex="1" parent="1">
          <mxGeometry x="310" y="80" width="120" height="40" as="geometry" />
        </mxCell>
        <mxCell id="-3tM-keVwTwwfNCp3LF9-15" value="" style="edgeStyle=orthogonalEdgeStyle;rounded=0;orthogonalLoop=1;jettySize=auto;html=1;" edge="1" parent="1" source="-3tM-keVwTwwfNCp3LF9-2" target="-3tM-keVwTwwfNCp3LF9-13">
          <mxGeometry relative="1" as="geometry" />
        </mxCell>
        <mxCell id="-3tM-keVwTwwfNCp3LF9-2" value="IRP_MJ_DIRECTORY_CONTROL" style="rounded=0;whiteSpace=wrap;html=1;" vertex="1" parent="1">
          <mxGeometry x="265" y="160" width="210" height="40" as="geometry" />
        </mxCell>
        <mxCell id="-3tM-keVwTwwfNCp3LF9-3" value="Is backup app?" style="rhombus;whiteSpace=wrap;html=1;" vertex="1" parent="1">
          <mxGeometry x="230" y="330" width="280" height="60" as="geometry" />
        </mxCell>
        <mxCell id="-3tM-keVwTwwfNCp3LF9-4" value="" style="rounded=1;whiteSpace=wrap;html=1;" vertex="1" parent="1">
          <mxGeometry x="305" y="560" width="125" height="40" as="geometry" />
        </mxCell>
        <mxCell id="-3tM-keVwTwwfNCp3LF9-5" value="return filename without &quot;.nxl&quot;" style="rounded=0;whiteSpace=wrap;html=1;" vertex="1" parent="1">
          <mxGeometry x="110" y="440" width="160" height="40" as="geometry" />
        </mxCell>
        <mxCell id="-3tM-keVwTwwfNCp3LF9-6" value="return filename with &quot;.nxl&quot;&amp;nbsp;" style="rounded=0;whiteSpace=wrap;html=1;" vertex="1" parent="1">
          <mxGeometry x="474" y="440" width="160" height="40" as="geometry" />
        </mxCell>
        <mxCell id="-3tM-keVwTwwfNCp3LF9-16" value="" style="edgeStyle=orthogonalEdgeStyle;rounded=0;orthogonalLoop=1;jettySize=auto;html=1;" edge="1" parent="1" source="-3tM-keVwTwwfNCp3LF9-13" target="-3tM-keVwTwwfNCp3LF9-3">
          <mxGeometry relative="1" as="geometry" />
        </mxCell>
        <mxCell id="-3tM-keVwTwwfNCp3LF9-13" value="Retrieve the IRP process path" style="rounded=0;whiteSpace=wrap;html=1;" vertex="1" parent="1">
          <mxGeometry x="265" y="240" width="210" height="40" as="geometry" />
        </mxCell>
        <mxCell id="-3tM-keVwTwwfNCp3LF9-17" value="" style="endArrow=classic;html=1;exitX=0;exitY=0.5;exitDx=0;exitDy=0;entryX=0.5;entryY=0;entryDx=0;entryDy=0;edgeStyle=orthogonalEdgeStyle;" edge="1" parent="1" source="-3tM-keVwTwwfNCp3LF9-3" target="-3tM-keVwTwwfNCp3LF9-5">
          <mxGeometry width="50" height="50" relative="1" as="geometry">
            <mxPoint x="400" y="310" as="sourcePoint" />
            <mxPoint x="450" y="260" as="targetPoint" />
          </mxGeometry>
        </mxCell>
        <mxCell id="-3tM-keVwTwwfNCp3LF9-18" value="" style="endArrow=classic;html=1;exitX=1;exitY=0.5;exitDx=0;exitDy=0;edgeStyle=orthogonalEdgeStyle;" edge="1" parent="1" source="-3tM-keVwTwwfNCp3LF9-3" target="-3tM-keVwTwwfNCp3LF9-6">
          <mxGeometry width="50" height="50" relative="1" as="geometry">
            <mxPoint x="400" y="310" as="sourcePoint" />
            <mxPoint x="450" y="260" as="targetPoint" />
          </mxGeometry>
        </mxCell>
        <mxCell id="-3tM-keVwTwwfNCp3LF9-19" value="" style="endArrow=classic;html=1;exitX=0.5;exitY=1;exitDx=0;exitDy=0;edgeStyle=orthogonalEdgeStyle;" edge="1" parent="1" source="-3tM-keVwTwwfNCp3LF9-5">
          <mxGeometry width="50" height="50" relative="1" as="geometry">
            <mxPoint x="190" y="490" as="sourcePoint" />
            <mxPoint x="368" y="561" as="targetPoint" />
          </mxGeometry>
        </mxCell>
        <mxCell id="-3tM-keVwTwwfNCp3LF9-20" value="" style="endArrow=classic;html=1;exitX=0.5;exitY=1;exitDx=0;exitDy=0;entryX=0.5;entryY=0;entryDx=0;entryDy=0;edgeStyle=orthogonalEdgeStyle;" edge="1" parent="1" source="-3tM-keVwTwwfNCp3LF9-6" target="-3tM-keVwTwwfNCp3LF9-4">
          <mxGeometry width="50" height="50" relative="1" as="geometry">
            <mxPoint x="400" y="310" as="sourcePoint" />
            <mxPoint x="450" y="260" as="targetPoint" />
          </mxGeometry>
        </mxCell>
        <mxCell id="-3tM-keVwTwwfNCp3LF9-22" value="&lt;b&gt;N&lt;/b&gt;" style="text;html=1;align=center;verticalAlign=middle;resizable=0;points=[];autosize=1;" vertex="1" parent="1">
          <mxGeometry x="192" y="381" width="20" height="20" as="geometry" />
        </mxCell>
        <mxCell id="-3tM-keVwTwwfNCp3LF9-23" value="&lt;b&gt;Y&lt;/b&gt;" style="text;html=1;align=center;verticalAlign=middle;resizable=0;points=[];autosize=1;" vertex="1" parent="1">
          <mxGeometry x="532" y="382" width="20" height="20" as="geometry" />
        </mxCell>
      </root>
    </mxGraphModel>
  </diagram>
</mxfile>
